<?xml version="1.0" encoding="UTF-8" standalone="no"?>
<svg
   xmlns:dc="http://purl.org/dc/elements/1.1/"
   xmlns:cc="http://creativecommons.org/ns#"
   xmlns:rdf="http://www.w3.org/1999/02/22-rdf-syntax-ns#"
   xmlns:svg="http://www.w3.org/2000/svg"
   xmlns="http://www.w3.org/2000/svg"
   viewBox="0 0 2268 2268"
   height="2268"
   width="2268"
   xml:space="preserve"
   id="svg2"
   version="1.1"><metadata
     id="metadata8"><rdf:RDF><cc:Work
         rdf:about=""><dc:format>image/svg+xml</dc:format><dc:type
           rdf:resource="http://purl.org/dc/dcmitype/StillImage" /></cc:Work></rdf:RDF></metadata><defs
     id="defs6"><clipPath
       id="clipPath18"
       clipPathUnits="userSpaceOnUse"><path
         id="path16"
         d="M 0,0 H 56692 V 56692 H 0 V 0" /></clipPath></defs><g
     transform="matrix(0.04,0,0,-0.04,0,2268)"
     id="g10"><g
       id="g12"><g
         clip-path="url(#clipPath18)"
         id="g14"><path
           id="path20"
           style="fill:none;stroke:#10387d;stroke-width:300;stroke-linecap:round;stroke-linejoin:round;stroke-miterlimit:10;stroke-dasharray:none;stroke-opacity:1"
           d="m 30680,55746 -604,13 -604,9 -604,4 -604,1 -604,-4 -604,-8 -604,-12 -604,-17" /><path
           id="path22"
           style="fill:none;stroke:#10387d;stroke-width:300;stroke-linecap:round;stroke-linejoin:round;stroke-miterlimit:10;stroke-dasharray:none;stroke-opacity:1"
           d="m 30642,55291 -593,14 -594,9 -594,5 h -594 l -594,-4 -593,-9 -594,-13 -594,-17" /><path
           id="path24"
           style="fill:none;stroke:#10387d;stroke-width:300;stroke-linecap:round;stroke-linejoin:round;stroke-miterlimit:10;stroke-dasharray:none;stroke-opacity:1"
           d="m 31104,54805 -567,16 -567,12 -567,8 -567,5 h -567 l -568,-4 -567,-8 -567,-12 -567,-16 -567,-20" /><path
           id="path26"
           style="fill:none;stroke:#10387d;stroke-width:300;stroke-linecap:round;stroke-linejoin:round;stroke-miterlimit:10;stroke-dasharray:none;stroke-opacity:1"
           d="m 31058,53578 46,1217" /><path
           id="path28"
           style="fill:none;stroke:#10387d;stroke-width:300;stroke-linecap:round;stroke-linejoin:round;stroke-miterlimit:10;stroke-dasharray:none;stroke-opacity:1"
           d="m 31104.34,54795.559 c 6.756,127.527 -38.508,252.343 -125.44,345.894 -86.931,93.551 -208.091,147.84 -335.773,150.449" /><path
           id="path30"
           style="fill:none;stroke:#10387d;stroke-width:300;stroke-linecap:round;stroke-linejoin:round;stroke-miterlimit:10;stroke-dasharray:none;stroke-opacity:1"
           d="m 30680,55746 -12,-456" /><path
           id="path32"
           style="fill:none;stroke:#10387d;stroke-width:300;stroke-linecap:round;stroke-linejoin:round;stroke-miterlimit:10;stroke-dasharray:none;stroke-opacity:1"
           d="m 25848,55732 14,-458" /><path
           id="path34"
           style="fill:none;stroke:#10387d;stroke-width:300;stroke-linecap:round;stroke-linejoin:round;stroke-miterlimit:10;stroke-dasharray:none;stroke-opacity:1"
           d="m 25506,53564 -72,1213" /><path
           id="path36"
           style="fill:none;stroke:#10387d;stroke-width:300;stroke-linecap:round;stroke-linejoin:round;stroke-miterlimit:10;stroke-dasharray:none;stroke-opacity:1"
           d="m 25892.844,55276.832 c -127.66,-3.43 -248.471,-58.496 -334.799,-152.605 -86.328,-94.11 -130.789,-219.211 -123.215,-346.692" /><path
           id="path38"
           style="fill:none;stroke:#10387d;stroke-width:300;stroke-linecap:round;stroke-linejoin:round;stroke-miterlimit:10;stroke-dasharray:none;stroke-opacity:1"
           d="m 21196.637,52695.473 c 547.529,-780.129 1504.73,-1162.442 2439.045,-974.172 934.314,188.269 1668.752,911.453 1871.42,1842.754" /><path
           id="path40"
           style="fill:none;stroke:#10387d;stroke-width:300;stroke-linecap:round;stroke-linejoin:round;stroke-miterlimit:10;stroke-dasharray:none;stroke-opacity:1"
           d="m 20017,54553 -563,-219 -562,-223 -560,-227 -558,-230 -556,-235 -555,-239 -554,-242 -551,-246" /><path
           id="path42"
           style="fill:none;stroke:#10387d;stroke-width:300;stroke-linecap:round;stroke-linejoin:round;stroke-miterlimit:10;stroke-dasharray:none;stroke-opacity:1"
           d="m 20156,54119 -554,-215 -552,-218 -550,-223 -549,-227 -547,-231 -546,-235 -543,-240 -542,-243" /><path
           id="path44"
           style="fill:none;stroke:#10387d;stroke-width:300;stroke-linecap:round;stroke-linejoin:round;stroke-miterlimit:10;stroke-dasharray:none;stroke-opacity:1"
           d="m 20769,53846 -530,-202 -529,-205 -527,-210 -526,-213 -524,-217 -522,-221 -521,-224 -520,-228 -517,-231 -516,-236" /><path
           id="path46"
           style="fill:none;stroke:#10387d;stroke-width:300;stroke-linecap:round;stroke-linejoin:round;stroke-miterlimit:10;stroke-dasharray:none;stroke-opacity:1"
           d="m 21196,52695 -424,1142" /><path
           id="path48"
           style="fill:none;stroke:#10387d;stroke-width:300;stroke-linecap:round;stroke-linejoin:round;stroke-miterlimit:10;stroke-dasharray:none;stroke-opacity:1"
           d="m 20772.043,53837.641 c -42.561,120.406 -132.143,218.394 -248.258,271.558 -116.115,53.164 -248.828,56.957 -367.787,10.504" /><path
           id="path50"
           style="fill:none;stroke:#10387d;stroke-width:300;stroke-linecap:round;stroke-linejoin:round;stroke-miterlimit:10;stroke-dasharray:none;stroke-opacity:1"
           d="m 20017,54553 163,-425" /><path
           id="path52"
           style="fill:none;stroke:#10387d;stroke-width:300;stroke-linecap:round;stroke-linejoin:round;stroke-miterlimit:10;stroke-dasharray:none;stroke-opacity:1"
           d="m 15558,52692 188,-418" /><path
           id="path54"
           style="fill:none;stroke:#10387d;stroke-width:300;stroke-linecap:round;stroke-linejoin:round;stroke-miterlimit:10;stroke-dasharray:none;stroke-opacity:1"
           d="m 16072,50557 -531,1093" /><path
           id="path56"
           style="fill:none;stroke:#10387d;stroke-width:300;stroke-linecap:round;stroke-linejoin:round;stroke-miterlimit:10;stroke-dasharray:none;stroke-opacity:1"
           d="m 15773.438,52287.109 c -116.632,-52.019 -207.173,-149.125 -250.917,-269.109 -43.742,-119.98 -36.945,-252.574 18.838,-367.453" /><path
           id="path58"
           style="fill:none;stroke:#10387d;stroke-width:300;stroke-linecap:round;stroke-linejoin:round;stroke-miterlimit:10;stroke-dasharray:none;stroke-opacity:1"
           d="m 12421.935,48105.523 c 804.393,-511.214 1835.036,-498.121 2626.182,33.364 791.148,531.484 1192.927,1480.679 1023.776,2418.644" /><path
           id="path60"
           style="fill:none;stroke:#10387d;stroke-width:300;stroke-linecap:round;stroke-linejoin:round;stroke-miterlimit:10;stroke-dasharray:none;stroke-opacity:1"
           d="m 10621,49371 -436,-418 -433,-421 -431,-423 -427,-427 -425,-430 -421,-433 -418,-436 -416,-438" /><path
           id="path62"
           style="fill:none;stroke:#10387d;stroke-width:300;stroke-linecap:round;stroke-linejoin:round;stroke-miterlimit:10;stroke-dasharray:none;stroke-opacity:1"
           d="m 10916,49023 -429,-410 -427,-414 -423,-416 -420,-420 -417,-423 -414,-426 -411,-428 -407,-432" /><path
           id="path64"
           style="fill:none;stroke:#10387d;stroke-width:300;stroke-linecap:round;stroke-linejoin:round;stroke-miterlimit:10;stroke-dasharray:none;stroke-opacity:1"
           d="m 11587,49006 -413,-390 -409,-392 -407,-395 -404,-398 -401,-401 -399,-404 -395,-407 -393,-409 -389,-412 -387,-415" /><path
           id="path66"
           style="fill:none;stroke:#10387d;stroke-width:300;stroke-linecap:round;stroke-linejoin:round;stroke-miterlimit:10;stroke-dasharray:none;stroke-opacity:1"
           d="m 12422,48106 -829,892" /><path
           id="path68"
           style="fill:none;stroke:#10387d;stroke-width:300;stroke-linecap:round;stroke-linejoin:round;stroke-miterlimit:10;stroke-dasharray:none;stroke-opacity:1"
           d="m 11594.07,48998.797 c -85.399,94.953 -205.662,151.203 -333.283,155.887 -127.621,4.679 -251.683,-42.606 -343.81,-131.043" /><path
           id="path70"
           style="fill:none;stroke:#10387d;stroke-width:300;stroke-linecap:round;stroke-linejoin:round;stroke-miterlimit:10;stroke-dasharray:none;stroke-opacity:1"
           d="m 10621,49371 314,-331" /><path
           id="path72"
           style="fill:none;stroke:#10387d;stroke-width:300;stroke-linecap:round;stroke-linejoin:round;stroke-miterlimit:10;stroke-dasharray:none;stroke-opacity:1"
           d="m 7214,45945 334,-314" /><path
           id="path74"
           style="fill:none;stroke:#10387d;stroke-width:300;stroke-linecap:round;stroke-linejoin:round;stroke-miterlimit:10;stroke-dasharray:none;stroke-opacity:1"
           d="m 8506,44170 -909,806" /><path
           id="path76"
           style="fill:none;stroke:#10387d;stroke-width:300;stroke-linecap:round;stroke-linejoin:round;stroke-miterlimit:10;stroke-dasharray:none;stroke-opacity:1"
           d="m 7568.2705,45653.832 c -87.8462,-92.695 -134.3345,-217.059 -128.8325,-344.644 5.5014,-127.59 62.5229,-247.489 158.0224,-332.278" /><path
           id="path78"
           style="fill:none;stroke:#10387d;stroke-width:300;stroke-linecap:round;stroke-linejoin:round;stroke-miterlimit:10;stroke-dasharray:none;stroke-opacity:1"
           d="m 6072.2515,40508.012 c 938.7968,-164.473 1885.9751,242.035 2413.5092,1035.82 527.5342,793.789 535.4893,1824.484 20.2706,2626.316" /><path
           id="path80"
           style="fill:none;stroke:#10387d;stroke-width:300;stroke-linecap:round;stroke-linejoin:round;stroke-miterlimit:10;stroke-dasharray:none;stroke-opacity:1"
           d="m 3924,40988 -243,-553 -239,-555 -236,-556 -231,-558 -228,-559 -223,-562 -220,-562 -216,-564" /><path
           id="path82"
           style="fill:none;stroke:#10387d;stroke-width:300;stroke-linecap:round;stroke-linejoin:round;stroke-miterlimit:10;stroke-dasharray:none;stroke-opacity:1"
           d="m 4330,40779 -240,-543 -236,-545 -231,-547 -228,-549 -223,-550 -219,-552 -216,-553 -211,-555" /><path
           id="path84"
           style="fill:none;stroke:#10387d;stroke-width:300;stroke-linecap:round;stroke-linejoin:round;stroke-miterlimit:10;stroke-dasharray:none;stroke-opacity:1"
           d="m 4956,41020 -232,-518 -228,-519 -225,-521 -221,-522 -217,-524 -213,-526 -210,-527 -206,-528 -202,-530 -199,-531" /><path
           id="path86"
           style="fill:none;stroke:#10387d;stroke-width:300;stroke-linecap:round;stroke-linejoin:round;stroke-miterlimit:10;stroke-dasharray:none;stroke-opacity:1"
           d="m 6072,40508 -1107,508" /><path
           id="path88"
           style="fill:none;stroke:#10387d;stroke-width:300;stroke-linecap:round;stroke-linejoin:round;stroke-miterlimit:10;stroke-dasharray:none;stroke-opacity:1"
           d="m 4965.7251,41015.953 c -115.2354,55.047 -247.8696,60.992 -367.5679,16.481 -119.6982,-44.516 -216.2207,-135.68 -267.4912,-252.641" /><path
           id="path90"
           style="fill:none;stroke:#10387d;stroke-width:300;stroke-linecap:round;stroke-linejoin:round;stroke-miterlimit:10;stroke-dasharray:none;stroke-opacity:1"
           d="m 3924,40988 417,-186" /><path
           id="path92"
           style="fill:none;stroke:#10387d;stroke-width:300;stroke-linecap:round;stroke-linejoin:round;stroke-miterlimit:10;stroke-dasharray:none;stroke-opacity:1"
           d="m 2088,36519 428,-162" /><path
           id="path94"
           style="fill:none;stroke:#10387d;stroke-width:300;stroke-linecap:round;stroke-linejoin:round;stroke-miterlimit:10;stroke-dasharray:none;stroke-opacity:1"
           d="m 3960,35373 -1148,397" /><path
           id="path96"
           style="fill:none;stroke:#10387d;stroke-width:300;stroke-linecap:round;stroke-linejoin:round;stroke-miterlimit:10;stroke-dasharray:none;stroke-opacity:1"
           d="m 2527.2046,36385.18 c -45.6868,-119.258 -41.0449,-251.946 12.8642,-367.715 53.909,-115.77 152.4734,-204.723 273.15,-246.508" /><path
           id="path98"
           style="fill:none;stroke:#10387d;stroke-width:300;stroke-linecap:round;stroke-linejoin:round;stroke-miterlimit:10;stroke-dasharray:none;stroke-opacity:1"
           d="m 3113.6345,31058.473 c 930.2759,207.308 1649.7918,945.341 1833.4007,1880.582 183.6088,935.242 -203.4717,1890.523 -986.3211,2434.16" /><path
           id="path100"
           style="fill:none;stroke:#10387d;stroke-width:300;stroke-linecap:round;stroke-linejoin:round;stroke-miterlimit:10;stroke-dasharray:none;stroke-opacity:1"
           d="m 945,30680 -13,-604 -9,-604 -4,-604 -1,-604 4,-604 8,-604 12,-604 17,-604" /><path
           id="path102"
           style="fill:none;stroke:#10387d;stroke-width:300;stroke-linecap:round;stroke-linejoin:round;stroke-miterlimit:10;stroke-dasharray:none;stroke-opacity:1"
           d="m 1400,30642 -14,-593 -9,-594 -5,-594 v -594 l 4,-594 9,-593 13,-594 17,-594" /><path
           id="path104"
           style="fill:none;stroke:#10387d;stroke-width:300;stroke-linecap:round;stroke-linejoin:round;stroke-miterlimit:10;stroke-dasharray:none;stroke-opacity:1"
           d="m 1886,31104 -16,-567 -12,-567 -8,-567 -5,-567 v -567 l 4,-568 8,-567 12,-567 16,-567 20,-567" /><path
           id="path106"
           style="fill:none;stroke:#10387d;stroke-width:300;stroke-linecap:round;stroke-linejoin:round;stroke-miterlimit:10;stroke-dasharray:none;stroke-opacity:1"
           d="m 3113,31058 -1217,46" /><path
           id="path108"
           style="fill:none;stroke:#10387d;stroke-width:300;stroke-linecap:round;stroke-linejoin:round;stroke-miterlimit:10;stroke-dasharray:none;stroke-opacity:1"
           d="m 1896.4413,31104.34 c -127.5281,6.756 -252.3419,-38.508 -345.8943,-125.44 -93.5525,-86.931 -147.8409,-208.091 -150.4487,-335.773" /><path
           id="path110"
           style="fill:none;stroke:#10387d;stroke-width:300;stroke-linecap:round;stroke-linejoin:round;stroke-miterlimit:10;stroke-dasharray:none;stroke-opacity:1"
           d="m 945,30680 456,-12" /><path
           id="path112"
           style="fill:none;stroke:#10387d;stroke-width:300;stroke-linecap:round;stroke-linejoin:round;stroke-miterlimit:10;stroke-dasharray:none;stroke-opacity:1"
           d="m 959,25848 458,14" /><path
           id="path114"
           style="fill:none;stroke:#10387d;stroke-width:300;stroke-linecap:round;stroke-linejoin:round;stroke-miterlimit:10;stroke-dasharray:none;stroke-opacity:1"
           d="m 3127,25506 -1213,-72" /><path
           id="path116"
           style="fill:none;stroke:#10387d;stroke-width:300;stroke-linecap:round;stroke-linejoin:round;stroke-miterlimit:10;stroke-dasharray:none;stroke-opacity:1"
           d="m 1415.1699,25892.844 c 3.4278,-127.66 58.4934,-248.471 152.6023,-334.799 94.109,-86.328 219.211,-130.789 346.693,-123.215" /><path
           id="path118"
           style="fill:none;stroke:#10387d;stroke-width:300;stroke-linecap:round;stroke-linejoin:round;stroke-miterlimit:10;stroke-dasharray:none;stroke-opacity:1"
           d="m 3996.5269,21196.637 c 780.1294,547.529 1162.4428,1504.73 974.1733,2439.045 -188.2691,934.314 -911.4553,1668.752 -1842.7532,1871.42" /><path
           id="path120"
           style="fill:none;stroke:#10387d;stroke-width:300;stroke-linecap:round;stroke-linejoin:round;stroke-miterlimit:10;stroke-dasharray:none;stroke-opacity:1"
           d="m 2138,20017 219,-563 223,-562 227,-560 230,-558 235,-556 239,-555 242,-554 246,-551" /><path
           id="path122"
           style="fill:none;stroke:#10387d;stroke-width:300;stroke-linecap:round;stroke-linejoin:round;stroke-miterlimit:10;stroke-dasharray:none;stroke-opacity:1"
           d="m 2572,20156 215,-554 218,-552 223,-550 227,-549 231,-547 235,-546 240,-543 243,-542" /><path
           id="path124"
           style="fill:none;stroke:#10387d;stroke-width:300;stroke-linecap:round;stroke-linejoin:round;stroke-miterlimit:10;stroke-dasharray:none;stroke-opacity:1"
           d="m 2845,20769 202,-530 205,-529 210,-527 213,-526 217,-524 221,-522 224,-521 228,-520 231,-517 236,-516" /><path
           id="path126"
           style="fill:none;stroke:#10387d;stroke-width:300;stroke-linecap:round;stroke-linejoin:round;stroke-miterlimit:10;stroke-dasharray:none;stroke-opacity:1"
           d="M 3996,21196 2854,20772" /><path
           id="path128"
           style="fill:none;stroke:#10387d;stroke-width:300;stroke-linecap:round;stroke-linejoin:round;stroke-miterlimit:10;stroke-dasharray:none;stroke-opacity:1"
           d="m 2854.3601,20772.043 c -120.4057,-42.561 -218.3967,-132.143 -271.561,-248.258 -53.1643,-116.115 -56.9539,-248.828 -10.502,-367.787" /><path
           id="path130"
           style="fill:none;stroke:#10387d;stroke-width:300;stroke-linecap:round;stroke-linejoin:round;stroke-miterlimit:10;stroke-dasharray:none;stroke-opacity:1"
           d="m 2138,20017 425,163" /><path
           id="path132"
           style="fill:none;stroke:#10387d;stroke-width:300;stroke-linecap:round;stroke-linejoin:round;stroke-miterlimit:10;stroke-dasharray:none;stroke-opacity:1"
           d="m 3999,15558 418,188" /><path
           id="path134"
           style="fill:none;stroke:#10387d;stroke-width:300;stroke-linecap:round;stroke-linejoin:round;stroke-miterlimit:10;stroke-dasharray:none;stroke-opacity:1"
           d="M 6134,16072 5041,15541" /><path
           id="path136"
           style="fill:none;stroke:#10387d;stroke-width:300;stroke-linecap:round;stroke-linejoin:round;stroke-miterlimit:10;stroke-dasharray:none;stroke-opacity:1"
           d="m 4404.8911,15773.438 c 52.0205,-116.632 149.1265,-207.173 269.1079,-250.917 119.982,-43.742 252.5757,-36.945 367.4551,18.838" /><path
           id="path138"
           style="fill:none;stroke:#10387d;stroke-width:300;stroke-linecap:round;stroke-linejoin:round;stroke-miterlimit:10;stroke-dasharray:none;stroke-opacity:1"
           d="m 8586.4756,12421.935 c 511.2148,804.393 498.1221,1835.036 -33.3633,2626.182 -531.4853,791.148 -1480.6787,1192.927 -2418.6436,1023.776" /><path
           id="path140"
           style="fill:none;stroke:#10387d;stroke-width:300;stroke-linecap:round;stroke-linejoin:round;stroke-miterlimit:10;stroke-dasharray:none;stroke-opacity:1"
           d="m 7320,10621 418,-436 421,-433 423,-431 427,-427 430,-425 433,-421 436,-418 438,-416" /><path
           id="path142"
           style="fill:none;stroke:#10387d;stroke-width:300;stroke-linecap:round;stroke-linejoin:round;stroke-miterlimit:10;stroke-dasharray:none;stroke-opacity:1"
           d="m 7668,10916 410,-429 414,-427 416,-423 420,-420 423,-417 426,-414 428,-411 432,-407" /><path
           id="path144"
           style="fill:none;stroke:#10387d;stroke-width:300;stroke-linecap:round;stroke-linejoin:round;stroke-miterlimit:10;stroke-dasharray:none;stroke-opacity:1"
           d="m 7685,11587 390,-413 392,-409 395,-407 398,-404 401,-401 404,-399 407,-395 409,-393 412,-389 415,-387" /><path
           id="path146"
           style="fill:none;stroke:#10387d;stroke-width:300;stroke-linecap:round;stroke-linejoin:round;stroke-miterlimit:10;stroke-dasharray:none;stroke-opacity:1"
           d="m 8585,12422 -892,-829" /><path
           id="path148"
           style="fill:none;stroke:#10387d;stroke-width:300;stroke-linecap:round;stroke-linejoin:round;stroke-miterlimit:10;stroke-dasharray:none;stroke-opacity:1"
           d="m 7693.2021,11594.07 c -94.9526,-85.399 -151.2031,-205.662 -155.8852,-333.283 -4.6821,-127.621 42.604,-251.683 131.0439,-343.81" /><path
           id="path150"
           style="fill:none;stroke:#10387d;stroke-width:300;stroke-linecap:round;stroke-linejoin:round;stroke-miterlimit:10;stroke-dasharray:none;stroke-opacity:1"
           d="m 7320,10621 331,314" /><path
           id="path152"
           style="fill:none;stroke:#10387d;stroke-width:300;stroke-linecap:round;stroke-linejoin:round;stroke-miterlimit:10;stroke-dasharray:none;stroke-opacity:1"
           d="m 10746,7214 314,334" /><path
           id="path154"
           style="fill:none;stroke:#10387d;stroke-width:300;stroke-linecap:round;stroke-linejoin:round;stroke-miterlimit:10;stroke-dasharray:none;stroke-opacity:1"
           d="m 12521,8506 -806,-909" /><path
           id="path156"
           style="fill:none;stroke:#10387d;stroke-width:300;stroke-linecap:round;stroke-linejoin:round;stroke-miterlimit:10;stroke-dasharray:none;stroke-opacity:1"
           d="m 11038.168,7568.2705 c 92.694,-87.8462 217.057,-134.3345 344.645,-128.8325 127.588,5.5014 247.488,62.5229 332.275,158.0224" /><path
           id="path158"
           style="fill:none;stroke:#10387d;stroke-width:300;stroke-linecap:round;stroke-linejoin:round;stroke-miterlimit:10;stroke-dasharray:none;stroke-opacity:1"
           d="m 16183.987,6072.2515 c 164.473,938.7968 -242.033,1885.9751 -1035.82,2413.5092 -793.787,527.5342 -1824.481,535.4893 -2626.316,20.2706" /><path
           id="path160"
           style="fill:none;stroke:#10387d;stroke-width:300;stroke-linecap:round;stroke-linejoin:round;stroke-miterlimit:10;stroke-dasharray:none;stroke-opacity:1"
           d="m 15703,3924 553,-243 555,-239 556,-236 558,-231 559,-228 562,-223 562,-220 564,-216" /><path
           id="path162"
           style="fill:none;stroke:#10387d;stroke-width:300;stroke-linecap:round;stroke-linejoin:round;stroke-miterlimit:10;stroke-dasharray:none;stroke-opacity:1"
           d="m 15912,4330 543,-240 545,-236 547,-231 549,-228 550,-223 552,-219 553,-216 555,-211" /><path
           id="path164"
           style="fill:none;stroke:#10387d;stroke-width:300;stroke-linecap:round;stroke-linejoin:round;stroke-miterlimit:10;stroke-dasharray:none;stroke-opacity:1"
           d="m 15671,4956 518,-232 519,-228 521,-225 522,-221 524,-217 526,-213 527,-210 528,-206 530,-202 531,-199" /><path
           id="path166"
           style="fill:none;stroke:#10387d;stroke-width:300;stroke-linecap:round;stroke-linejoin:round;stroke-miterlimit:10;stroke-dasharray:none;stroke-opacity:1"
           d="M 16183,6072 15675,4965" /><path
           id="path168"
           style="fill:none;stroke:#10387d;stroke-width:300;stroke-linecap:round;stroke-linejoin:round;stroke-miterlimit:10;stroke-dasharray:none;stroke-opacity:1"
           d="m 15676.045,4965.7251 c -55.044,-115.2354 -60.989,-247.8696 -16.477,-367.5679 44.513,-119.6982 135.676,-216.2207 252.639,-267.4912" /><path
           id="path170"
           style="fill:none;stroke:#10387d;stroke-width:300;stroke-linecap:round;stroke-linejoin:round;stroke-miterlimit:10;stroke-dasharray:none;stroke-opacity:1"
           d="m 15703,3924 186,417" /><path
           id="path172"
           style="fill:none;stroke:#10387d;stroke-width:300;stroke-linecap:round;stroke-linejoin:round;stroke-miterlimit:10;stroke-dasharray:none;stroke-opacity:1"
           d="m 20172,2088 162,428" /><path
           id="path174"
           style="fill:none;stroke:#10387d;stroke-width:300;stroke-linecap:round;stroke-linejoin:round;stroke-miterlimit:10;stroke-dasharray:none;stroke-opacity:1"
           d="M 21318,3960 20921,2812" /><path
           id="path176"
           style="fill:none;stroke:#10387d;stroke-width:300;stroke-linecap:round;stroke-linejoin:round;stroke-miterlimit:10;stroke-dasharray:none;stroke-opacity:1"
           d="m 20306.822,2527.2046 c 119.256,-45.6868 251.942,-41.0449 367.713,12.8642 115.77,53.909 204.721,152.4734 246.51,273.15" /><path
           id="path178"
           style="fill:none;stroke:#10387d;stroke-width:300;stroke-linecap:round;stroke-linejoin:round;stroke-miterlimit:10;stroke-dasharray:none;stroke-opacity:1"
           d="m 25633.527,3113.6345 c -207.308,930.2759 -945.341,1649.7918 -1880.584,1833.4007 -935.242,183.6088 -1890.523,-203.4717 -2434.156,-986.3211" /><path
           id="path180"
           style="fill:none;stroke:#10387d;stroke-width:300;stroke-linecap:round;stroke-linejoin:round;stroke-miterlimit:10;stroke-dasharray:none;stroke-opacity:1"
           d="m 26011,945 604,-13 604,-9 604,-4 604,-1 604,4 604,8 604,12 604,17" /><path
           id="path182"
           style="fill:none;stroke:#10387d;stroke-width:300;stroke-linecap:round;stroke-linejoin:round;stroke-miterlimit:10;stroke-dasharray:none;stroke-opacity:1"
           d="m 26049,1400 593,-14 594,-9 594,-5 h 594 l 594,4 593,9 594,13 594,17" /><path
           id="path184"
           style="fill:none;stroke:#10387d;stroke-width:300;stroke-linecap:round;stroke-linejoin:round;stroke-miterlimit:10;stroke-dasharray:none;stroke-opacity:1"
           d="m 25587,1886 567,-16 567,-12 567,-8 567,-5 h 567 l 568,4 567,8 567,12 567,16 567,20" /><path
           id="path186"
           style="fill:none;stroke:#10387d;stroke-width:300;stroke-linecap:round;stroke-linejoin:round;stroke-miterlimit:10;stroke-dasharray:none;stroke-opacity:1"
           d="m 25633,3113 -46,-1217" /><path
           id="path188"
           style="fill:none;stroke:#10387d;stroke-width:300;stroke-linecap:round;stroke-linejoin:round;stroke-miterlimit:10;stroke-dasharray:none;stroke-opacity:1"
           d="m 25587.66,1896.4413 c -6.756,-127.5281 38.508,-252.3419 125.44,-345.8943 86.931,-93.5525 208.091,-147.8409 335.773,-150.4487" /><path
           id="path190"
           style="fill:none;stroke:#10387d;stroke-width:300;stroke-linecap:round;stroke-linejoin:round;stroke-miterlimit:10;stroke-dasharray:none;stroke-opacity:1"
           d="m 26011,945 12,456" /><path
           id="path192"
           style="fill:none;stroke:#10387d;stroke-width:300;stroke-linecap:round;stroke-linejoin:round;stroke-miterlimit:10;stroke-dasharray:none;stroke-opacity:1"
           d="m 30843,959 -14,458" /><path
           id="path194"
           style="fill:none;stroke:#10387d;stroke-width:300;stroke-linecap:round;stroke-linejoin:round;stroke-miterlimit:10;stroke-dasharray:none;stroke-opacity:1"
           d="m 31185,3127 72,-1213" /><path
           id="path196"
           style="fill:none;stroke:#10387d;stroke-width:300;stroke-linecap:round;stroke-linejoin:round;stroke-miterlimit:10;stroke-dasharray:none;stroke-opacity:1"
           d="m 30799.156,1415.1699 c 127.66,3.4278 248.471,58.4934 334.799,152.6023 86.328,94.109 130.789,219.211 123.215,346.693" /><path
           id="path198"
           style="fill:none;stroke:#10387d;stroke-width:300;stroke-linecap:round;stroke-linejoin:round;stroke-miterlimit:10;stroke-dasharray:none;stroke-opacity:1"
           d="m 35495.363,3996.5269 c -547.531,780.1294 -1504.73,1162.4428 -2439.047,974.1733 -934.312,-188.2691 -1668.75,-911.4553 -1871.418,-1842.7532" /><path
           id="path200"
           style="fill:none;stroke:#10387d;stroke-width:300;stroke-linecap:round;stroke-linejoin:round;stroke-miterlimit:10;stroke-dasharray:none;stroke-opacity:1"
           d="m 36674,2138 563,219 562,223 560,227 558,230 556,235 555,239 554,242 551,246" /><path
           id="path202"
           style="fill:none;stroke:#10387d;stroke-width:300;stroke-linecap:round;stroke-linejoin:round;stroke-miterlimit:10;stroke-dasharray:none;stroke-opacity:1"
           d="m 36535,2572 554,215 552,218 550,223 549,227 547,231 546,235 543,240 542,243" /><path
           id="path204"
           style="fill:none;stroke:#10387d;stroke-width:300;stroke-linecap:round;stroke-linejoin:round;stroke-miterlimit:10;stroke-dasharray:none;stroke-opacity:1"
           d="m 35922,2845 530,202 529,205 527,210 526,213 524,217 522,221 521,224 520,228 517,231 516,236" /><path
           id="path206"
           style="fill:none;stroke:#10387d;stroke-width:300;stroke-linecap:round;stroke-linejoin:round;stroke-miterlimit:10;stroke-dasharray:none;stroke-opacity:1"
           d="m 35495,3996 424,-1142" /><path
           id="path208"
           style="fill:none;stroke:#10387d;stroke-width:300;stroke-linecap:round;stroke-linejoin:round;stroke-miterlimit:10;stroke-dasharray:none;stroke-opacity:1"
           d="m 35919.957,2854.3601 c 42.563,-120.4057 132.145,-218.3967 248.258,-271.561 116.113,-53.1643 248.828,-56.9539 367.789,-10.502" /><path
           id="path210"
           style="fill:none;stroke:#10387d;stroke-width:300;stroke-linecap:round;stroke-linejoin:round;stroke-miterlimit:10;stroke-dasharray:none;stroke-opacity:1"
           d="m 36674,2138 -163,425" /><path
           id="path212"
           style="fill:none;stroke:#10387d;stroke-width:300;stroke-linecap:round;stroke-linejoin:round;stroke-miterlimit:10;stroke-dasharray:none;stroke-opacity:1"
           d="m 41133,3999 -188,418" /><path
           id="path214"
           style="fill:none;stroke:#10387d;stroke-width:300;stroke-linecap:round;stroke-linejoin:round;stroke-miterlimit:10;stroke-dasharray:none;stroke-opacity:1"
           d="m 40619,6134 531,-1093" /><path
           id="path216"
           style="fill:none;stroke:#10387d;stroke-width:300;stroke-linecap:round;stroke-linejoin:round;stroke-miterlimit:10;stroke-dasharray:none;stroke-opacity:1"
           d="m 40918.563,4404.8911 c 116.632,52.0205 207.171,149.1265 250.914,269.1079 43.746,119.982 36.945,252.5757 -18.836,367.4551" /><path
           id="path218"
           style="fill:none;stroke:#10387d;stroke-width:300;stroke-linecap:round;stroke-linejoin:round;stroke-miterlimit:10;stroke-dasharray:none;stroke-opacity:1"
           d="m 44270.066,8586.4756 c -804.394,511.2148 -1835.035,498.1221 -2626.183,-33.3633 -791.149,-531.4853 -1192.926,-1480.6787 -1023.774,-2418.6436" /><path
           id="path220"
           style="fill:none;stroke:#10387d;stroke-width:300;stroke-linecap:round;stroke-linejoin:round;stroke-miterlimit:10;stroke-dasharray:none;stroke-opacity:1"
           d="m 46070,7320 436,418 433,421 431,423 427,427 425,430 421,433 418,436 416,438" /><path
           id="path222"
           style="fill:none;stroke:#10387d;stroke-width:300;stroke-linecap:round;stroke-linejoin:round;stroke-miterlimit:10;stroke-dasharray:none;stroke-opacity:1"
           d="m 45775,7668 429,410 427,414 423,416 420,420 417,423 414,426 411,428 407,432" /><path
           id="path224"
           style="fill:none;stroke:#10387d;stroke-width:300;stroke-linecap:round;stroke-linejoin:round;stroke-miterlimit:10;stroke-dasharray:none;stroke-opacity:1"
           d="m 45104,7685 413,390 409,392 407,395 404,398 401,401 399,404 395,407 393,409 389,412 387,415" /><path
           id="path226"
           style="fill:none;stroke:#10387d;stroke-width:300;stroke-linecap:round;stroke-linejoin:round;stroke-miterlimit:10;stroke-dasharray:none;stroke-opacity:1"
           d="m 44269,8585 829,-892" /><path
           id="path228"
           style="fill:none;stroke:#10387d;stroke-width:300;stroke-linecap:round;stroke-linejoin:round;stroke-miterlimit:10;stroke-dasharray:none;stroke-opacity:1"
           d="m 45097.93,7693.2021 c 85.398,-94.9526 205.664,-151.2031 333.285,-155.8852 127.621,-4.6821 251.68,42.604 343.808,131.0439" /><path
           id="path230"
           style="fill:none;stroke:#10387d;stroke-width:300;stroke-linecap:round;stroke-linejoin:round;stroke-miterlimit:10;stroke-dasharray:none;stroke-opacity:1"
           d="m 46070,7320 -314,331" /><path
           id="path232"
           style="fill:none;stroke:#10387d;stroke-width:300;stroke-linecap:round;stroke-linejoin:round;stroke-miterlimit:10;stroke-dasharray:none;stroke-opacity:1"
           d="m 49477,10746 -334,314" /><path
           id="path234"
           style="fill:none;stroke:#10387d;stroke-width:300;stroke-linecap:round;stroke-linejoin:round;stroke-miterlimit:10;stroke-dasharray:none;stroke-opacity:1"
           d="m 48185,12521 909,-806" /><path
           id="path236"
           style="fill:none;stroke:#10387d;stroke-width:300;stroke-linecap:round;stroke-linejoin:round;stroke-miterlimit:10;stroke-dasharray:none;stroke-opacity:1"
           d="m 49123.73,11038.168 c 87.844,92.694 134.333,217.057 128.833,344.645 -5.504,127.588 -62.524,247.488 -158.024,332.275" /><path
           id="path238"
           style="fill:none;stroke:#10387d;stroke-width:300;stroke-linecap:round;stroke-linejoin:round;stroke-miterlimit:10;stroke-dasharray:none;stroke-opacity:1"
           d="m 50619.75,16183.987 c -938.797,164.473 -1885.977,-242.033 -2413.512,-1035.82 -527.535,-793.787 -535.488,-1824.481 -20.269,-2626.316" /><path
           id="path240"
           style="fill:none;stroke:#10387d;stroke-width:300;stroke-linecap:round;stroke-linejoin:round;stroke-miterlimit:10;stroke-dasharray:none;stroke-opacity:1"
           d="m 52767,15703 243,553 239,555 236,556 231,558 228,559 223,562 220,562 216,564" /><path
           id="path242"
           style="fill:none;stroke:#10387d;stroke-width:300;stroke-linecap:round;stroke-linejoin:round;stroke-miterlimit:10;stroke-dasharray:none;stroke-opacity:1"
           d="m 52361,15912 240,543 236,545 231,547 228,549 223,550 219,552 216,553 211,555" /><path
           id="path244"
           style="fill:none;stroke:#10387d;stroke-width:300;stroke-linecap:round;stroke-linejoin:round;stroke-miterlimit:10;stroke-dasharray:none;stroke-opacity:1"
           d="m 51735,15671 232,518 228,519 225,521 221,522 217,524 213,526 210,527 206,528 202,530 199,531" /><path
           id="path246"
           style="fill:none;stroke:#10387d;stroke-width:300;stroke-linecap:round;stroke-linejoin:round;stroke-miterlimit:10;stroke-dasharray:none;stroke-opacity:1"
           d="m 50619,16183 1107,-508" /><path
           id="path248"
           style="fill:none;stroke:#10387d;stroke-width:300;stroke-linecap:round;stroke-linejoin:round;stroke-miterlimit:10;stroke-dasharray:none;stroke-opacity:1"
           d="m 51726.273,15676.045 c 115.239,-55.044 247.872,-60.989 367.571,-16.477 119.699,44.513 216.219,135.676 267.488,252.639" /><path
           id="path250"
           style="fill:none;stroke:#10387d;stroke-width:300;stroke-linecap:round;stroke-linejoin:round;stroke-miterlimit:10;stroke-dasharray:none;stroke-opacity:1"
           d="m 52767,15703 -417,186" /><path
           id="path252"
           style="fill:none;stroke:#10387d;stroke-width:300;stroke-linecap:round;stroke-linejoin:round;stroke-miterlimit:10;stroke-dasharray:none;stroke-opacity:1"
           d="m 54603,20172 -428,162" /><path
           id="path254"
           style="fill:none;stroke:#10387d;stroke-width:300;stroke-linecap:round;stroke-linejoin:round;stroke-miterlimit:10;stroke-dasharray:none;stroke-opacity:1"
           d="m 52731,21318 1148,-397" /><path
           id="path256"
           style="fill:none;stroke:#10387d;stroke-width:300;stroke-linecap:round;stroke-linejoin:round;stroke-miterlimit:10;stroke-dasharray:none;stroke-opacity:1"
           d="m 54164.797,20306.822 c 45.683,119.256 41.043,251.942 -12.867,367.713 -53.907,115.77 -152.473,204.721 -273.149,246.51" /><path
           id="path258"
           style="fill:none;stroke:#10387d;stroke-width:300;stroke-linecap:round;stroke-linejoin:round;stroke-miterlimit:10;stroke-dasharray:none;stroke-opacity:1"
           d="m 53578.367,25633.527 c -930.277,-207.308 -1649.793,-945.341 -1833.402,-1880.584 -183.61,-935.242 203.473,-1890.523 986.32,-2434.156" /><path
           id="path260"
           style="fill:none;stroke:#10387d;stroke-width:300;stroke-linecap:round;stroke-linejoin:round;stroke-miterlimit:10;stroke-dasharray:none;stroke-opacity:1"
           d="m 55746,26011 13,604 9,604 4,604 1,604 -4,604 -8,604 -12,604 -17,604" /><path
           id="path262"
           style="fill:none;stroke:#10387d;stroke-width:300;stroke-linecap:round;stroke-linejoin:round;stroke-miterlimit:10;stroke-dasharray:none;stroke-opacity:1"
           d="m 55291,26049 14,593 9,594 5,594 v 594 l -4,594 -9,593 -13,594 -17,594" /><path
           id="path264"
           style="fill:none;stroke:#10387d;stroke-width:300;stroke-linecap:round;stroke-linejoin:round;stroke-miterlimit:10;stroke-dasharray:none;stroke-opacity:1"
           d="m 54805,25587 16,567 12,567 8,567 5,567 v 567 l -4,568 -8,567 -12,567 -16,567 -20,567" /><path
           id="path266"
           style="fill:none;stroke:#10387d;stroke-width:300;stroke-linecap:round;stroke-linejoin:round;stroke-miterlimit:10;stroke-dasharray:none;stroke-opacity:1"
           d="m 53578,25633 1217,-46" /><path
           id="path268"
           style="fill:none;stroke:#10387d;stroke-width:300;stroke-linecap:round;stroke-linejoin:round;stroke-miterlimit:10;stroke-dasharray:none;stroke-opacity:1"
           d="m 54795.559,25587.66 c 127.527,-6.756 252.343,38.508 345.894,125.44 93.551,86.931 147.84,208.091 150.449,335.773" /><path
           id="path270"
           style="fill:none;stroke:#10387d;stroke-width:300;stroke-linecap:round;stroke-linejoin:round;stroke-miterlimit:10;stroke-dasharray:none;stroke-opacity:1"
           d="m 55746,26011 -456,12" /><path
           id="path272"
           style="fill:none;stroke:#10387d;stroke-width:300;stroke-linecap:round;stroke-linejoin:round;stroke-miterlimit:10;stroke-dasharray:none;stroke-opacity:1"
           d="m 55732,30843 -458,-14" /><path
           id="path274"
           style="fill:none;stroke:#10387d;stroke-width:300;stroke-linecap:round;stroke-linejoin:round;stroke-miterlimit:10;stroke-dasharray:none;stroke-opacity:1"
           d="m 53564,31185 1213,72" /><path
           id="path276"
           style="fill:none;stroke:#10387d;stroke-width:300;stroke-linecap:round;stroke-linejoin:round;stroke-miterlimit:10;stroke-dasharray:none;stroke-opacity:1"
           d="m 55276.832,30799.156 c -3.43,127.66 -58.496,248.471 -152.605,334.799 -94.11,86.328 -219.211,130.789 -346.692,123.215" /><path
           id="path278"
           style="fill:none;stroke:#10387d;stroke-width:300;stroke-linecap:round;stroke-linejoin:round;stroke-miterlimit:10;stroke-dasharray:none;stroke-opacity:1"
           d="m 52695.473,35495.363 c -780.129,-547.531 -1162.442,-1504.73 -974.172,-2439.047 188.269,-934.312 911.453,-1668.75 1842.754,-1871.418" /><path
           id="path280"
           style="fill:none;stroke:#10387d;stroke-width:300;stroke-linecap:round;stroke-linejoin:round;stroke-miterlimit:10;stroke-dasharray:none;stroke-opacity:1"
           d="m 54553,36674 -219,563 -223,562 -227,560 -230,558 -235,556 -239,555 -242,554 -246,551" /><path
           id="path282"
           style="fill:none;stroke:#10387d;stroke-width:300;stroke-linecap:round;stroke-linejoin:round;stroke-miterlimit:10;stroke-dasharray:none;stroke-opacity:1"
           d="m 54119,36535 -215,554 -218,552 -223,550 -227,549 -231,547 -235,546 -240,543 -243,542" /><path
           id="path284"
           style="fill:none;stroke:#10387d;stroke-width:300;stroke-linecap:round;stroke-linejoin:round;stroke-miterlimit:10;stroke-dasharray:none;stroke-opacity:1"
           d="m 53846,35922 -202,530 -205,529 -210,527 -213,526 -217,524 -221,522 -224,521 -228,520 -231,517 -236,516" /><path
           id="path286"
           style="fill:none;stroke:#10387d;stroke-width:300;stroke-linecap:round;stroke-linejoin:round;stroke-miterlimit:10;stroke-dasharray:none;stroke-opacity:1"
           d="m 52695,35495 1142,424" /><path
           id="path288"
           style="fill:none;stroke:#10387d;stroke-width:300;stroke-linecap:round;stroke-linejoin:round;stroke-miterlimit:10;stroke-dasharray:none;stroke-opacity:1"
           d="m 53837.641,35919.957 c 120.406,42.563 218.394,132.145 271.558,248.258 53.164,116.113 56.957,248.828 10.504,367.789" /><path
           id="path290"
           style="fill:none;stroke:#10387d;stroke-width:300;stroke-linecap:round;stroke-linejoin:round;stroke-miterlimit:10;stroke-dasharray:none;stroke-opacity:1"
           d="m 54553,36674 -425,-163" /><path
           id="path292"
           style="fill:none;stroke:#10387d;stroke-width:300;stroke-linecap:round;stroke-linejoin:round;stroke-miterlimit:10;stroke-dasharray:none;stroke-opacity:1"
           d="m 52692,41133 -418,-188" /><path
           id="path294"
           style="fill:none;stroke:#10387d;stroke-width:300;stroke-linecap:round;stroke-linejoin:round;stroke-miterlimit:10;stroke-dasharray:none;stroke-opacity:1"
           d="m 50557,40619 1093,531" /><path
           id="path296"
           style="fill:none;stroke:#10387d;stroke-width:300;stroke-linecap:round;stroke-linejoin:round;stroke-miterlimit:10;stroke-dasharray:none;stroke-opacity:1"
           d="m 52287.109,40918.563 c -52.019,116.632 -149.125,207.171 -269.109,250.914 -119.98,43.746 -252.574,36.945 -367.453,-18.836" /><path
           id="path298"
           style="fill:none;stroke:#10387d;stroke-width:300;stroke-linecap:round;stroke-linejoin:round;stroke-miterlimit:10;stroke-dasharray:none;stroke-opacity:1"
           d="m 48105.523,44270.066 c -511.214,-804.394 -498.121,-1835.035 33.364,-2626.183 531.484,-791.149 1480.679,-1192.926 2418.644,-1023.774" /><path
           id="path300"
           style="fill:none;stroke:#10387d;stroke-width:300;stroke-linecap:round;stroke-linejoin:round;stroke-miterlimit:10;stroke-dasharray:none;stroke-opacity:1"
           d="m 49371,46070 -418,436 -421,433 -423,431 -427,427 -430,425 -433,421 -436,418 -438,416" /><path
           id="path302"
           style="fill:none;stroke:#10387d;stroke-width:300;stroke-linecap:round;stroke-linejoin:round;stroke-miterlimit:10;stroke-dasharray:none;stroke-opacity:1"
           d="m 49023,45775 -410,429 -414,427 -416,423 -420,420 -423,417 -426,414 -428,411 -432,407" /><path
           id="path304"
           style="fill:none;stroke:#10387d;stroke-width:300;stroke-linecap:round;stroke-linejoin:round;stroke-miterlimit:10;stroke-dasharray:none;stroke-opacity:1"
           d="m 49006,45104 -390,413 -392,409 -395,407 -398,404 -401,401 -404,399 -407,395 -409,393 -412,389 -415,387" /><path
           id="path306"
           style="fill:none;stroke:#10387d;stroke-width:300;stroke-linecap:round;stroke-linejoin:round;stroke-miterlimit:10;stroke-dasharray:none;stroke-opacity:1"
           d="m 48106,44269 892,829" /><path
           id="path308"
           style="fill:none;stroke:#10387d;stroke-width:300;stroke-linecap:round;stroke-linejoin:round;stroke-miterlimit:10;stroke-dasharray:none;stroke-opacity:1"
           d="m 48998.797,45097.93 c 94.953,85.398 151.203,205.664 155.887,333.285 4.679,127.621 -42.606,251.68 -131.043,343.808" /><path
           id="path310"
           style="fill:none;stroke:#10387d;stroke-width:300;stroke-linecap:round;stroke-linejoin:round;stroke-miterlimit:10;stroke-dasharray:none;stroke-opacity:1"
           d="m 49371,46070 -331,-314" /><path
           id="path312"
           style="fill:none;stroke:#10387d;stroke-width:300;stroke-linecap:round;stroke-linejoin:round;stroke-miterlimit:10;stroke-dasharray:none;stroke-opacity:1"
           d="m 45945,49477 -314,-334" /><path
           id="path314"
           style="fill:none;stroke:#10387d;stroke-width:300;stroke-linecap:round;stroke-linejoin:round;stroke-miterlimit:10;stroke-dasharray:none;stroke-opacity:1"
           d="m 44170,48185 806,909" /><path
           id="path316"
           style="fill:none;stroke:#10387d;stroke-width:300;stroke-linecap:round;stroke-linejoin:round;stroke-miterlimit:10;stroke-dasharray:none;stroke-opacity:1"
           d="m 45653.832,49123.73 c -92.695,87.844 -217.059,134.333 -344.644,128.833 -127.59,-5.504 -247.489,-62.524 -332.278,-158.024" /><path
           id="path318"
           style="fill:none;stroke:#10387d;stroke-width:300;stroke-linecap:round;stroke-linejoin:round;stroke-miterlimit:10;stroke-dasharray:none;stroke-opacity:1"
           d="m 40508.012,50619.75 c -164.473,-938.797 242.035,-1885.977 1035.82,-2413.512 793.789,-527.535 1824.484,-535.488 2626.316,-20.269" /><path
           id="path320"
           style="fill:none;stroke:#10387d;stroke-width:300;stroke-linecap:round;stroke-linejoin:round;stroke-miterlimit:10;stroke-dasharray:none;stroke-opacity:1"
           d="m 40988,52767 -553,243 -555,239 -556,236 -558,231 -559,228 -562,223 -562,220 -564,216" /><path
           id="path322"
           style="fill:none;stroke:#10387d;stroke-width:300;stroke-linecap:round;stroke-linejoin:round;stroke-miterlimit:10;stroke-dasharray:none;stroke-opacity:1"
           d="m 40779,52361 -543,240 -545,236 -547,231 -549,228 -550,223 -552,219 -553,216 -555,211" /><path
           id="path324"
           style="fill:none;stroke:#10387d;stroke-width:300;stroke-linecap:round;stroke-linejoin:round;stroke-miterlimit:10;stroke-dasharray:none;stroke-opacity:1"
           d="m 41020,51735 -518,232 -519,228 -521,225 -522,221 -524,217 -526,213 -527,210 -528,206 -530,202 -531,199" /><path
           id="path326"
           style="fill:none;stroke:#10387d;stroke-width:300;stroke-linecap:round;stroke-linejoin:round;stroke-miterlimit:10;stroke-dasharray:none;stroke-opacity:1"
           d="m 40508,50619 508,1107" /><path
           id="path328"
           style="fill:none;stroke:#10387d;stroke-width:300;stroke-linecap:round;stroke-linejoin:round;stroke-miterlimit:10;stroke-dasharray:none;stroke-opacity:1"
           d="m 41015.953,51726.273 c 55.047,115.239 60.992,247.872 16.481,367.571 -44.516,119.699 -135.68,216.219 -252.641,267.488" /><path
           id="path330"
           style="fill:none;stroke:#10387d;stroke-width:300;stroke-linecap:round;stroke-linejoin:round;stroke-miterlimit:10;stroke-dasharray:none;stroke-opacity:1"
           d="m 40988,52767 -186,-417" /><path
           id="path332"
           style="fill:none;stroke:#10387d;stroke-width:300;stroke-linecap:round;stroke-linejoin:round;stroke-miterlimit:10;stroke-dasharray:none;stroke-opacity:1"
           d="m 36519,54603 -162,-428" /><path
           id="path334"
           style="fill:none;stroke:#10387d;stroke-width:300;stroke-linecap:round;stroke-linejoin:round;stroke-miterlimit:10;stroke-dasharray:none;stroke-opacity:1"
           d="m 35373,52731 397,1148" /><path
           id="path336"
           style="fill:none;stroke:#10387d;stroke-width:300;stroke-linecap:round;stroke-linejoin:round;stroke-miterlimit:10;stroke-dasharray:none;stroke-opacity:1"
           d="m 36385.18,54164.797 c -119.258,45.683 -251.946,41.043 -367.715,-12.867 -115.77,-53.907 -204.723,-152.473 -246.508,-273.149" /><path
           id="path338"
           style="fill:none;stroke:#10387d;stroke-width:300;stroke-linecap:round;stroke-linejoin:round;stroke-miterlimit:10;stroke-dasharray:none;stroke-opacity:1"
           d="m 31058.473,53578.367 c 207.308,-930.277 945.341,-1649.793 1880.582,-1833.402 935.242,-183.61 1890.523,203.473 2434.16,986.32" /><path
           id="path340"
           style="fill:none;stroke:#10387d;stroke-width:300;stroke-linecap:round;stroke-linejoin:round;stroke-miterlimit:10;stroke-dasharray:none;stroke-opacity:1"
           d="m 29289,28346.5 c 0,520.529 -421.971,942.5 -942.5,942.5 -520.529,0 -942.5,-421.971 -942.5,-942.5 0,-520.529 421.971,-942.5 942.5,-942.5 520.529,0 942.5,421.971 942.5,942.5" /><path
           id="path342"
           style="fill:none;stroke:#10387d;stroke-width:300;stroke-linecap:round;stroke-linejoin:round;stroke-miterlimit:10;stroke-dasharray:none;stroke-opacity:1"
           d="m 27125,25593.5 c 0,203.518 -164.982,368.5 -368.5,368.5 -203.518,0 -368.5,-164.982 -368.5,-368.5 0,-203.518 164.982,-368.5 368.5,-368.5 203.518,0 368.5,164.982 368.5,368.5" /><path
           id="path344"
           style="fill:none;stroke:#10387d;stroke-width:300;stroke-linecap:round;stroke-linejoin:round;stroke-miterlimit:10;stroke-dasharray:none;stroke-opacity:1"
           d="m 30304,25593.5 c 0,203.518 -164.982,368.5 -368.5,368.5 -203.518,0 -368.5,-164.982 -368.5,-368.5 0,-203.518 164.982,-368.5 368.5,-368.5 203.518,0 368.5,164.982 368.5,368.5" /><path
           id="path346"
           style="fill:none;stroke:#10387d;stroke-width:300;stroke-linecap:round;stroke-linejoin:round;stroke-miterlimit:10;stroke-dasharray:none;stroke-opacity:1"
           d="m 31893,28346.5 c 0,203.518 -164.982,368.5 -368.5,368.5 -203.518,0 -368.5,-164.982 -368.5,-368.5 0,-203.518 164.982,-368.5 368.5,-368.5 203.518,0 368.5,164.982 368.5,368.5" /><path
           id="path348"
           style="fill:none;stroke:#10387d;stroke-width:300;stroke-linecap:round;stroke-linejoin:round;stroke-miterlimit:10;stroke-dasharray:none;stroke-opacity:1"
           d="m 30304,31098.5 c 0,203.518 -164.982,368.5 -368.5,368.5 -203.518,0 -368.5,-164.982 -368.5,-368.5 0,-203.518 164.982,-368.5 368.5,-368.5 203.518,0 368.5,164.982 368.5,368.5" /><path
           id="path350"
           style="fill:none;stroke:#10387d;stroke-width:300;stroke-linecap:round;stroke-linejoin:round;stroke-miterlimit:10;stroke-dasharray:none;stroke-opacity:1"
           d="m 27125,31098.5 c 0,203.518 -164.982,368.5 -368.5,368.5 -203.518,0 -368.5,-164.982 -368.5,-368.5 0,-203.518 164.982,-368.5 368.5,-368.5 203.518,0 368.5,164.982 368.5,368.5" /><path
           id="path352"
           style="fill:none;stroke:#10387d;stroke-width:300;stroke-linecap:round;stroke-linejoin:round;stroke-miterlimit:10;stroke-dasharray:none;stroke-opacity:1"
           d="m 25536,28346.5 c 0,203.518 -164.982,368.5 -368.5,368.5 -203.518,0 -368.5,-164.982 -368.5,-368.5 0,-203.518 164.982,-368.5 368.5,-368.5 203.518,0 368.5,164.982 368.5,368.5" /></g></g></g></svg>